<?xml version="1.0"?>
<!DOCTYPE svg PUBLIC "-//W3C//DTD SVG 1.1//EN" "http://www.w3.org/Graphics/SVG/1.1/DTD/svg11.dtd">
<svg width="338.97149999999993mm" height="118.9465mm" viewBox="0 0 338.97149999999993 118.9465" xmlns="http://www.w3.org/2000/svg" version="1.1">
<g id="Body003" transform="translate(3.323250,3.323250) scale(1,-1)">
<path id="Body003_f0000"  d="M 0.0 -109.3 L 0.0 -109.3 L 0.0 -3.0 L 0.0 -3.0 L 0.0 -109.3 Z " stroke="#191919" stroke-width="0.35 px" style="stroke-width:0.35;stroke-miterlimit:4;stroke-dasharray:none;fill:#cccccc;fill-opacity:1.0;fill-rule: evenodd"/>
<path id="Body003_f0001"  d="M 0.0 -3.0000000000000004 A 3 3 0 0 0 3 0L 3.000000000000001 0.0 A 3 3 0 0 1 0 -3L 0.0 -3.0 Z " stroke="#191919" stroke-width="0.35 px" style="stroke-width:0.35;stroke-miterlimit:4;stroke-dasharray:none;fill:#cccccc;fill-opacity:1.0;fill-rule: evenodd"/>
<path id="Body003_f0002"  d="M 3.000000000000001 0.0 L 3.000000000000001 0.0 L 329.325 0.0 L 329.325 0.0 L 3.0000000000000004 0.0 Z " stroke="#191919" stroke-width="0.35 px" style="stroke-width:0.35;stroke-miterlimit:4;stroke-dasharray:none;fill:#cccccc;fill-opacity:1.0;fill-rule: evenodd"/>
<path id="Body003_f0003"  d="M 329.325 0.0 A 3 3 0 0 0 332.325 -3L 332.325 -3.0 A 3 3 0 0 1 329.325 0L 329.325 0.0 Z " stroke="#191919" stroke-width="0.35 px" style="stroke-width:0.35;stroke-miterlimit:4;stroke-dasharray:none;fill:#cccccc;fill-opacity:1.0;fill-rule: evenodd"/>
<path id="Body003_f0004"  d="M 332.325 -3.0 L 332.325 -3.0 L 332.325 -109.3 L 332.325 -109.3 L 332.325 -3.0000000000000004 Z " stroke="#191919" stroke-width="0.35 px" style="stroke-width:0.35;stroke-miterlimit:4;stroke-dasharray:none;fill:#cccccc;fill-opacity:1.0;fill-rule: evenodd"/>
<path id="Body003_f0005"  d="M 332.325 -109.30000000000001 A 3 3 0 0 0 329.325 -112.3L 329.325 -112.3 A 3 3 0 0 1 332.325 -109.3L 332.325 -109.3 Z " stroke="#191919" stroke-width="0.35 px" style="stroke-width:0.35;stroke-miterlimit:4;stroke-dasharray:none;fill:#cccccc;fill-opacity:1.0;fill-rule: evenodd"/>
<path id="Body003_f0006"  d="M 329.325 -112.3 L 329.325 -112.3 L 3.0 -112.3 L 3.0 -112.3 L 329.325 -112.3 Z " stroke="#191919" stroke-width="0.35 px" style="stroke-width:0.35;stroke-miterlimit:4;stroke-dasharray:none;fill:#cccccc;fill-opacity:1.0;fill-rule: evenodd"/>
<path id="Body003_f0007"  d="M 3.0 -112.3 A 3 3 0 0 0 0 -109.3L 0.0 -109.3 A 3 3 0 0 1 3 -112.3L 3.0 -112.3 Z " stroke="#191919" stroke-width="0.35 px" style="stroke-width:0.35;stroke-miterlimit:4;stroke-dasharray:none;fill:#cccccc;fill-opacity:1.0;fill-rule: evenodd"/>
<circle cx="220.2166666666667" cy="-4.0" r="1.15" stroke="#191919" stroke-width="0.35 px" style="stroke-width:0.35;stroke-miterlimit:4;stroke-dasharray:none;fill:#cccccc"/>
<circle cx="112.10833333333335" cy="-4.0" r="1.15" stroke="#191919" stroke-width="0.35 px" style="stroke-width:0.35;stroke-miterlimit:4;stroke-dasharray:none;fill:#cccccc"/>
<circle cx="220.2166666666667" cy="-108.3" r="1.15" stroke="#191919" stroke-width="0.35 px" style="stroke-width:0.35;stroke-miterlimit:4;stroke-dasharray:none;fill:#cccccc"/>
<circle cx="112.10833333333335" cy="-108.3" r="1.15" stroke="#191919" stroke-width="0.35 px" style="stroke-width:0.35;stroke-miterlimit:4;stroke-dasharray:none;fill:#cccccc"/>
<circle cx="4.0" cy="-4.0" r="1.15" stroke="#191919" stroke-width="0.35 px" style="stroke-width:0.35;stroke-miterlimit:4;stroke-dasharray:none;fill:#cccccc"/>
<circle cx="4.0" cy="-108.3" r="1.15" stroke="#191919" stroke-width="0.35 px" style="stroke-width:0.35;stroke-miterlimit:4;stroke-dasharray:none;fill:#cccccc"/>
<circle cx="328.32500000000005" cy="-4.0" r="1.15" stroke="#191919" stroke-width="0.35 px" style="stroke-width:0.35;stroke-miterlimit:4;stroke-dasharray:none;fill:#cccccc"/>
<circle cx="328.32500000000005" cy="-108.3" r="1.15" stroke="#191919" stroke-width="0.35 px" style="stroke-width:0.35;stroke-miterlimit:4;stroke-dasharray:none;fill:#cccccc"/>
<circle cx="328.32500000000005" cy="-108.3" r="1.15" stroke="#191919" stroke-width="0.35 px" style="stroke-width:0.35;stroke-miterlimit:4;stroke-dasharray:none;fill:#cccccc"/>
<circle cx="11.575000000008044" cy="-4.0" r="1.15" stroke="#191919" stroke-width="0.35 px" style="stroke-width:0.35;stroke-miterlimit:4;stroke-dasharray:none;fill:#cccccc"/>
<circle cx="26.825000000008046" cy="-4.0" r="1.15" stroke="#191919" stroke-width="0.35 px" style="stroke-width:0.35;stroke-miterlimit:4;stroke-dasharray:none;fill:#cccccc"/>
<circle cx="220.2166666666667" cy="-4.0" r="1.15" stroke="#191919" stroke-width="0.35 px" style="stroke-width:0.35;stroke-miterlimit:4;stroke-dasharray:none;fill:#cccccc"/>
<title>b'Base_Body'</title>
</g>
</svg>