<?xml version="1.0"?>
<!DOCTYPE svg PUBLIC "-//W3C//DTD SVG 1.1//EN" "http://www.w3.org/Graphics/SVG/1.1/DTD/svg11.dtd">
<svg width="338.9715mm" height="118.9465mm" viewBox="0 0 338.9715 118.9465" xmlns="http://www.w3.org/2000/svg" version="1.1">
<g id="Body" transform="translate(3.323250,3.323250) scale(1,-1)">
<path id="Body_f0000"  d="M 0.0 -16.0 L 0.0 -16.0 L 0.0 -3.0 L 0.0 -3.0 L 1e-17 -16.0 Z " stroke="#191919" stroke-width="0.35 px" style="stroke-width:0.35;stroke-miterlimit:4;stroke-dasharray:none;fill:#000000;fill-opacity:1.0;fill-rule: evenodd"/>
<path id="Body_f0001"  d="M 0.0 -3.0000000000000004 A 3 3 0 0 0 3 0L 3.0 0.0 A 3 3 0 0 1 0 -3L 0.0 -3.0 Z " stroke="#191919" stroke-width="0.35 px" style="stroke-width:0.35;stroke-miterlimit:4;stroke-dasharray:none;fill:#000000;fill-opacity:1.0;fill-rule: evenodd"/>
<path id="Body_f0002"  d="M 3.0 0.0 L 3.0 0.0 L 329.32500000000005 0.0 L 329.32500000000005 0.0 L 3.0000000000000004 0.0 Z " stroke="#191919" stroke-width="0.35 px" style="stroke-width:0.35;stroke-miterlimit:4;stroke-dasharray:none;fill:#000000;fill-opacity:1.0;fill-rule: evenodd"/>
<path id="Body_f0003"  d="M 329.32500000000005 0.0 A 3 3 0 0 0 332.325 -3L 332.32500000000005 -3.0 A 3 3 0 0 1 329.325 0L 329.32500000000005 0.0 Z " stroke="#191919" stroke-width="0.35 px" style="stroke-width:0.35;stroke-miterlimit:4;stroke-dasharray:none;fill:#000000;fill-opacity:1.0;fill-rule: evenodd"/>
<path id="Body_f0004"  d="M 332.32500000000005 -3.0 L 332.32500000000005 -3.0 L 332.32500000000005 -109.3 L 332.32500000000005 -109.3 L 332.32500000000005 -3.0000000000000004 Z " stroke="#191919" stroke-width="0.35 px" style="stroke-width:0.35;stroke-miterlimit:4;stroke-dasharray:none;fill:#000000;fill-opacity:1.0;fill-rule: evenodd"/>
<path id="Body_f0005"  d="M 332.32500000000005 -109.3 A 3 3 0 0 0 329.325 -112.3L 329.32500000000005 -112.3 A 3 3 0 0 1 332.325 -109.3L 332.32500000000005 -109.3 Z " stroke="#191919" stroke-width="0.35 px" style="stroke-width:0.35;stroke-miterlimit:4;stroke-dasharray:none;fill:#000000;fill-opacity:1.0;fill-rule: evenodd"/>
<path id="Body_f0006"  d="M 329.32500000000005 -112.3 L 329.32500000000005 -112.3 L 3.000000000000002 -112.3 L 3.0000000000000018 -112.3 L 329.32500000000005 -112.3 Z " stroke="#191919" stroke-width="0.35 px" style="stroke-width:0.35;stroke-miterlimit:4;stroke-dasharray:none;fill:#000000;fill-opacity:1.0;fill-rule: evenodd"/>
<path id="Body_f0007"  d="M 3.000000000000004 -112.3 A 3 3 0 0 0 3.9968e-15 -109.3L 2e-15 -109.30000000000001 A 3 3 0 0 1 3 -112.3L 3.0000000000000018 -112.3 Z " stroke="#191919" stroke-width="0.35 px" style="stroke-width:0.35;stroke-miterlimit:4;stroke-dasharray:none;fill:#000000;fill-opacity:1.0;fill-rule: evenodd"/>
<path id="Body_f0008"  d="M 2e-15 -109.30000000000001 L 2e-15 -109.30000000000001 L 0.0 -52.0 L 2e-17 -52.0 L 4e-17 -109.3 Z " stroke="#191919" stroke-width="0.35 px" style="stroke-width:0.35;stroke-miterlimit:4;stroke-dasharray:none;fill:#000000;fill-opacity:1.0;fill-rule: evenodd"/>
<path id="Body_f0009"  d="M 0.0 -52.0 L 18.0 -52.0 L 18.0 -52.0 L 0.0 -52.0 L 2e-17 -52.0 Z " stroke="#191919" stroke-width="0.35 px" style="stroke-width:0.35;stroke-miterlimit:4;stroke-dasharray:none;fill:#000000;fill-opacity:1.0;fill-rule: evenodd"/>
<path id="Body_f0010"  d="M 18.0 -52.0 L 18.0 -48.0 L 18.0 -48.0 L 18.0 -52.0 L 18.0 -52.0 Z " stroke="#191919" stroke-width="0.35 px" style="stroke-width:0.35;stroke-miterlimit:4;stroke-dasharray:none;fill:#000000;fill-opacity:1.0;fill-rule: evenodd"/>
<path id="Body_f0011"  d="M 18.0 -48.0 L 3e-17 -48.0 L 0.0 -48.0 L 18.0 -48.0 L 18.0 -48.0 Z " stroke="#191919" stroke-width="0.35 px" style="stroke-width:0.35;stroke-miterlimit:4;stroke-dasharray:none;fill:#000000;fill-opacity:1.0;fill-rule: evenodd"/>
<path id="Body_f0012"  d="M 0.0 -48.0 L 0.0 -48.0 L 0.0 -44.0 L 1e-17 -44.0 L 3e-17 -48.0 Z " stroke="#191919" stroke-width="0.35 px" style="stroke-width:0.35;stroke-miterlimit:4;stroke-dasharray:none;fill:#000000;fill-opacity:1.0;fill-rule: evenodd"/>
<path id="Body_f0013"  d="M 0.0 -44.0 L 18.0 -44.0 L 18.0 -44.0 L 0.0 -44.0 L 1e-17 -44.0 Z " stroke="#191919" stroke-width="0.35 px" style="stroke-width:0.35;stroke-miterlimit:4;stroke-dasharray:none;fill:#000000;fill-opacity:1.0;fill-rule: evenodd"/>
<path id="Body_f0014"  d="M 18.0 -44.0 L 18.0 -40.0 L 18.0 -40.0 L 18.0 -44.0 L 18.0 -44.0 Z " stroke="#191919" stroke-width="0.35 px" style="stroke-width:0.35;stroke-miterlimit:4;stroke-dasharray:none;fill:#000000;fill-opacity:1.0;fill-rule: evenodd"/>
<path id="Body_f0015"  d="M 18.0 -40.0 L 3e-17 -40.0 L 0.0 -40.0 L 18.0 -40.0 L 18.0 -40.0 Z " stroke="#191919" stroke-width="0.35 px" style="stroke-width:0.35;stroke-miterlimit:4;stroke-dasharray:none;fill:#000000;fill-opacity:1.0;fill-rule: evenodd"/>
<path id="Body_f0016"  d="M 0.0 -40.0 L 0.0 -40.0 L 0.0 -36.0 L 1e-17 -36.0 L 3e-17 -40.0 Z " stroke="#191919" stroke-width="0.35 px" style="stroke-width:0.35;stroke-miterlimit:4;stroke-dasharray:none;fill:#000000;fill-opacity:1.0;fill-rule: evenodd"/>
<path id="Body_f0017"  d="M 0.0 -36.0 L 18.0 -36.0 L 18.0 -36.0 L 0.0 -36.0 L 1e-17 -36.0 Z " stroke="#191919" stroke-width="0.35 px" style="stroke-width:0.35;stroke-miterlimit:4;stroke-dasharray:none;fill:#000000;fill-opacity:1.0;fill-rule: evenodd"/>
<path id="Body_f0018"  d="M 18.0 -36.0 L 18.0 -32.0 L 18.0 -32.0 L 18.0 -36.0 L 18.0 -36.0 Z " stroke="#191919" stroke-width="0.35 px" style="stroke-width:0.35;stroke-miterlimit:4;stroke-dasharray:none;fill:#000000;fill-opacity:1.0;fill-rule: evenodd"/>
<path id="Body_f0019"  d="M 18.0 -32.0 L 2e-17 -32.0 L 0.0 -32.0 L 18.0 -32.0 L 18.0 -32.0 Z " stroke="#191919" stroke-width="0.35 px" style="stroke-width:0.35;stroke-miterlimit:4;stroke-dasharray:none;fill:#000000;fill-opacity:1.0;fill-rule: evenodd"/>
<path id="Body_f0020"  d="M 0.0 -32.0 L 0.0 -32.0 L 0.0 -28.0 L 1e-17 -28.0 L 2e-17 -32.0 Z " stroke="#191919" stroke-width="0.35 px" style="stroke-width:0.35;stroke-miterlimit:4;stroke-dasharray:none;fill:#000000;fill-opacity:1.0;fill-rule: evenodd"/>
<path id="Body_f0021"  d="M 0.0 -28.0 L 18.0 -28.0 L 18.0 -28.0 L 0.0 -28.0 L 1e-17 -28.0 Z " stroke="#191919" stroke-width="0.35 px" style="stroke-width:0.35;stroke-miterlimit:4;stroke-dasharray:none;fill:#000000;fill-opacity:1.0;fill-rule: evenodd"/>
<path id="Body_f0022"  d="M 18.0 -28.0 L 18.0 -24.0 L 18.0 -24.0 L 18.0 -28.0 L 18.0 -28.0 Z " stroke="#191919" stroke-width="0.35 px" style="stroke-width:0.35;stroke-miterlimit:4;stroke-dasharray:none;fill:#000000;fill-opacity:1.0;fill-rule: evenodd"/>
<path id="Body_f0023"  d="M 18.0 -24.0 L 2e-17 -24.0 L 0.0 -24.0 L 18.0 -24.0 L 18.0 -24.0 Z " stroke="#191919" stroke-width="0.35 px" style="stroke-width:0.35;stroke-miterlimit:4;stroke-dasharray:none;fill:#000000;fill-opacity:1.0;fill-rule: evenodd"/>
<path id="Body_f0024"  d="M 0.0 -24.0 L 0.0 -24.0 L 0.0 -20.0 L 1e-17 -20.0 L 2e-17 -24.0 Z " stroke="#191919" stroke-width="0.35 px" style="stroke-width:0.35;stroke-miterlimit:4;stroke-dasharray:none;fill:#000000;fill-opacity:1.0;fill-rule: evenodd"/>
<path id="Body_f0025"  d="M 0.0 -20.0 L 18.0 -20.0 L 18.0 -20.0 L 0.0 -20.0 L 1e-17 -20.0 Z " stroke="#191919" stroke-width="0.35 px" style="stroke-width:0.35;stroke-miterlimit:4;stroke-dasharray:none;fill:#000000;fill-opacity:1.0;fill-rule: evenodd"/>
<path id="Body_f0026"  d="M 18.0 -20.0 L 18.0 -16.0 L 18.0 -16.0 L 18.0 -20.0 L 18.0 -20.0 Z " stroke="#191919" stroke-width="0.35 px" style="stroke-width:0.35;stroke-miterlimit:4;stroke-dasharray:none;fill:#000000;fill-opacity:1.0;fill-rule: evenodd"/>
<path id="Body_f0027"  d="M 18.0 -16.0 L 1e-17 -16.0 L 0.0 -16.0 L 18.0 -16.0 L 18.0 -16.0 Z " stroke="#191919" stroke-width="0.35 px" style="stroke-width:0.35;stroke-miterlimit:4;stroke-dasharray:none;fill:#000000;fill-opacity:1.0;fill-rule: evenodd"/>
<path id="Body_f0028"  d="M 161.35 -104.30000000000008 L 161.35 -104.30000000000008 L 324.32500000000005 -104.3 L 324.32500000000005 -104.3 L 161.35 -104.30000000000008 Z " stroke="#191919" stroke-width="0.35 px" style="stroke-width:0.35;stroke-miterlimit:4;stroke-dasharray:none;fill:#000000;fill-opacity:1.0;fill-rule: evenodd"/>
<path id="Body_f0029"  d="M 324.32500000000005 -104.3 L 324.32500000000005 -104.3 L 324.32500000000005 -8.0 L 324.32500000000005 -8.0 L 324.32500000000005 -104.3 Z " stroke="#191919" stroke-width="0.35 px" style="stroke-width:0.35;stroke-miterlimit:4;stroke-dasharray:none;fill:#000000;fill-opacity:1.0;fill-rule: evenodd"/>
<path id="Body_f0030"  d="M 324.32500000000005 -8.0 L 28.0 -8.0 L 28.0 -8.0 L 324.32500000000005 -8.0 L 324.32500000000005 -8.0 Z " stroke="#191919" stroke-width="0.35 px" style="stroke-width:0.35;stroke-miterlimit:4;stroke-dasharray:none;fill:#000000;fill-opacity:1.0;fill-rule: evenodd"/>
<path id="Body_f0031"  d="M 28.0 -8.0 L 28.0 -104.30000000000014 L 28.0 -104.30000000000014 L 28.0 -8.0 L 28.0 -8.0 Z " stroke="#191919" stroke-width="0.35 px" style="stroke-width:0.35;stroke-miterlimit:4;stroke-dasharray:none;fill:#000000;fill-opacity:1.0;fill-rule: evenodd"/>
<path id="Body_f0032"  d="M 28.0 -104.30000000000014 L 28.0 -104.30000000000014 L 152.875 -104.30000000000008 L 152.875 -104.30000000000008 L 28.0 -104.30000000000014 Z " stroke="#191919" stroke-width="0.35 px" style="stroke-width:0.35;stroke-miterlimit:4;stroke-dasharray:none;fill:#000000;fill-opacity:1.0;fill-rule: evenodd"/>
<path id="Body_f0033"  d="M 152.875 -104.30000000000008 L 152.875 -85.25000000000009 L 152.875 -85.25000000000009 L 152.875 -104.30000000000008 L 152.875 -104.30000000000008 Z " stroke="#191919" stroke-width="0.35 px" style="stroke-width:0.35;stroke-miterlimit:4;stroke-dasharray:none;fill:#000000;fill-opacity:1.0;fill-rule: evenodd"/>
<path id="Body_f0034"  d="M 152.875 -85.25000000000009 L 161.35 -85.25000000000009 L 161.35 -85.25000000000009 L 152.875 -85.25000000000009 L 152.875 -85.25000000000009 Z " stroke="#191919" stroke-width="0.35 px" style="stroke-width:0.35;stroke-miterlimit:4;stroke-dasharray:none;fill:#000000;fill-opacity:1.0;fill-rule: evenodd"/>
<path id="Body_f0035"  d="M 161.35 -85.25000000000009 L 161.35 -104.30000000000008 L 161.35 -104.30000000000008 L 161.35 -85.25000000000009 L 161.35 -85.25000000000009 Z " stroke="#191919" stroke-width="0.35 px" style="stroke-width:0.35;stroke-miterlimit:4;stroke-dasharray:none;fill:#000000;fill-opacity:1.0;fill-rule: evenodd"/>
<circle cx="220.2166666666667" cy="-4.0" r="1.15" stroke="#191919" stroke-width="0.35 px" style="stroke-width:0.35;stroke-miterlimit:4;stroke-dasharray:none;fill:#000000"/>
<circle cx="112.10833333333335" cy="-4.0" r="1.15" stroke="#191919" stroke-width="0.35 px" style="stroke-width:0.35;stroke-miterlimit:4;stroke-dasharray:none;fill:#000000"/>
<circle cx="220.2166666666667" cy="-108.29999999999998" r="1.15" stroke="#191919" stroke-width="0.35 px" style="stroke-width:0.35;stroke-miterlimit:4;stroke-dasharray:none;fill:#000000"/>
<circle cx="112.10833333333335" cy="-108.29999999999998" r="1.15" stroke="#191919" stroke-width="0.35 px" style="stroke-width:0.35;stroke-miterlimit:4;stroke-dasharray:none;fill:#000000"/>
<circle cx="4.0" cy="-4.0" r="1.15" stroke="#191919" stroke-width="0.35 px" style="stroke-width:0.35;stroke-miterlimit:4;stroke-dasharray:none;fill:#000000"/>
<circle cx="4.0" cy="-108.29999999999998" r="1.15" stroke="#191919" stroke-width="0.35 px" style="stroke-width:0.35;stroke-miterlimit:4;stroke-dasharray:none;fill:#000000"/>
<circle cx="328.32500000000005" cy="-4.0" r="1.15" stroke="#191919" stroke-width="0.35 px" style="stroke-width:0.35;stroke-miterlimit:4;stroke-dasharray:none;fill:#000000"/>
<circle cx="328.32500000000005" cy="-108.29999999999998" r="1.15" stroke="#191919" stroke-width="0.35 px" style="stroke-width:0.35;stroke-miterlimit:4;stroke-dasharray:none;fill:#000000"/>
<circle cx="220.2166666666667" cy="-4.0" r="1.15" stroke="#191919" stroke-width="0.35 px" style="stroke-width:0.35;stroke-miterlimit:4;stroke-dasharray:none;fill:#000000"/>
<circle cx="220.2166666666667" cy="-4.0" r="1.15" stroke="#191919" stroke-width="0.35 px" style="stroke-width:0.35;stroke-miterlimit:4;stroke-dasharray:none;fill:#000000"/>
<title>b'Top_Body'</title>
</g>
</svg>